<?xml version="1.0" encoding="UTF-8" standalone="no"?>
<svg width="209px" height="51px" viewBox="0 0 209 51" version="1.1" xmlns="http://www.w3.org/2000/svg" xmlns:xlink="http://www.w3.org/1999/xlink">
    <!-- Generator: Sketch 50.2 (55047) - http://www.bohemiancoding.com/sketch -->
    <title>logos/cf-hor-light</title>
    <desc>Created with Sketch.</desc>
    <defs></defs>
    <g id="Cf-Website-2.1" stroke="none" stroke-width="1" fill="none" fill-rule="evenodd">
        <g id="Home-v2---Desktop" transform="translate(-47.000000, -20.000000)" fill="#FFFFFF">
            <g id="#header">
                <g id="logos/cf-hor-light" transform="translate(47.000000, 20.000000)">
                    <path d="M201.260273,28.0315714 L208.411965,20.8915714 L204.689312,20.8915714 L198.395619,27.3137143 L198.395619,15.0291429 L195.289812,15.0291429 L195.289812,37.1477143 L198.395619,37.1477143 L198.395619,28.7781429 L205.04385,37.1477143 L208.618004,37.1477143 L201.260273,28.0315714 Z M188.702504,37.1477143 L191.777427,37.1477143 L191.777427,20.8911429 L188.702504,20.8911429 L188.702504,37.1477143 Z M188.702504,18.3192857 L191.777427,18.3192857 L191.777427,15.0291429 L188.702504,15.0291429 L188.702504,18.3192857 Z M182.084312,23.2795714 L182.084312,20.8915714 L179.189196,20.8915714 L179.189196,37.1477143 L182.259465,37.1477143 L182.259465,28.3615714 C182.259465,25.131 183.768581,23.5165714 186.664542,23.5165714 L186.873965,23.5165714 L186.873965,20.4085714 C184.682427,20.4411429 182.999004,21.3651429 182.084312,23.2795714 Z M173.63335,29.0177143 C173.603312,31.8308571 171.652504,34.7288571 167.990773,34.7288571 C164.710658,34.7288571 162.523773,32.0987143 162.523773,28.9881429 C162.523773,25.9088571 164.76735,23.3082857 168.07835,23.3082857 C171.24085,23.3082857 173.63335,25.8227143 173.63335,28.9881429 L173.63335,29.0177143 Z M168.550927,20.4085714 C166.482081,20.4411429 164.120465,21.3651429 162.642235,23.4874286 L162.642235,15.0291429 L159.566888,15.0291429 L159.566888,37.1477143 L162.523773,37.1477143 L162.523773,34.3388571 C163.556081,36.282 165.686273,37.629 168.432888,37.629 C173.043581,37.629 176.709119,34.1922857 176.709119,28.9598571 C176.709119,23.5474286 172.719927,20.4085714 168.550927,20.4085714 Z M152.507004,31.4987143 C151.711196,33.3527143 149.96135,34.7288571 147.511735,34.7288571 C143.61435,34.7288571 141.930504,31.4987143 141.899619,29.0751429 L141.899619,29.0507143 C141.899619,26.0001429 144.083119,23.3082857 147.455042,23.3082857 C150.022696,23.3082857 151.829235,24.7727143 152.594581,26.658 C152.952927,27.4045714 153.102273,28.242 153.071388,29.0751429 C153.040504,29.9147143 152.861542,30.7521429 152.507004,31.4987143 Z M153.040504,23.7557143 C152.301388,22.2025714 150.263004,20.4085714 147.074273,20.4085714 C142.403081,20.4085714 138.825119,24.0548571 138.825119,29.0177143 C138.825119,33.561 141.899619,37.629 147.074273,37.629 C149.611465,37.629 151.916812,36.4924286 153.040504,34.3101429 L153.040504,37.1477143 L156.111196,37.1477143 L156.111196,20.8915714 L153.040504,20.8915714 L153.040504,23.7557143 Z M126.446312,37.1477143 L129.932465,37.1477143 L129.932465,27.6724286 L137.731888,27.6724286 L137.731888,24.5974286 L129.932465,24.5974286 L129.932465,18.1392857 L137.849504,18.1392857 L137.849504,15.0291429 L126.446312,15.0291429 L126.446312,37.1477143 Z M116.486658,20.4085714 C113.61735,20.3815714 111.819696,21.7242857 111.049273,23.397 L111.049273,20.8915714 L108.154158,20.8915714 L108.154158,37.1477143 L111.229081,37.1477143 L111.229081,28.0915714 C111.229081,25.2822857 112.619735,23.3682857 115.629504,23.3391429 C118.76535,23.3082857 119.885235,25.404 119.885235,28.3328571 L119.885235,37.1477143 L122.990619,37.1477143 L122.990619,27.6124286 C122.990619,24.2365714 121.630427,20.4702857 116.486658,20.4085714 Z M101.654004,18.3192857 L104.724696,18.3192857 L104.724696,15.0291429 L101.654004,15.0291429 L101.654004,18.3192857 Z M101.654004,37.1477143 L104.724696,37.1477143 L104.724696,20.8911429 L101.654004,20.8911429 L101.654004,37.1477143 Z M90.5440038,34.698 C87.4733115,34.698 85.0499269,32.2782857 85.0499269,29.0507143 L85.0499269,29.0177143 C85.0499269,25.7605714 87.4733115,23.3391429 90.5440038,23.3391429 C93.6185038,23.3391429 96.0380808,25.7605714 96.0380808,29.0177143 C96.0380808,32.2782857 93.6185038,34.698 90.5440038,34.698 Z M90.5440038,20.4085714 C85.1375038,20.4085714 81.9754269,24.6552857 81.9754269,28.9881429 L81.9754269,29.0177143 C81.9754269,33.3814286 85.1375038,37.5981429 90.5440038,37.5981429 C95.9505038,37.5981429 99.1130038,33.3814286 99.1130038,29.0177143 C99.1130038,24.6552857 95.9505038,20.4085714 90.5440038,20.4085714 Z M70.0383115,17.7205714 C73.8832346,17.7475714 76.09635,20.4411429 76.8050038,21.8751429 L80.5010038,21.8751429 C79.4335808,18.8241429 75.94785,14.6395714 70.0691962,14.6104286 C63.3020808,14.6104286 58.66135,19.989 58.66135,26.0592857 C58.66135,32.3382857 63.5076962,37.569 70.0992346,37.569 C75.0644654,37.569 79.1056962,34.4584286 80.4705423,30.4238571 L76.8050038,30.4238571 C76.33285,31.2308571 74.2940423,34.4584286 70.0691962,34.4584286 C65.4542731,34.4584286 62.1475038,30.6617143 62.1475038,26.0592857 C62.1475038,21.5738571 65.3975808,17.7205714 70.0383115,17.7205714 Z" id="Fill-1"></path>
                    <path d="M25.0272423,14.0519571 C18.3197808,14.0519571 14.9334731,16.5539571 14.9334731,16.5539571 C14.9334731,16.5539571 14.9943962,32.2371 14.9334731,32.1933857 C17.8057423,36.5125286 25.0272423,38.7573857 25.0272423,38.7573857 C25.0272423,38.7573857 32.2529731,36.5125286 35.1286269,32.1933857 C35.0990115,32.2118143 35.0990115,28.8359571 35.1019731,25.2149571 C33.4997808,24.5579571 31.8184731,24.0471 30.0724346,23.7098143 L30.0724346,20.0159571 C31.80705,20.3108143 33.4925885,20.7586714 35.1095885,21.3385286 C35.1210115,18.6685286 35.1286269,16.5539571 35.1286269,16.5539571 C35.1286269,16.5539571 31.7427423,14.0519571 25.0272423,14.0519571 M38.6431269,34.0666714 C34.7618192,39.6706714 25.0272423,42.5819571 25.0272423,42.5819571 C25.0272423,42.5819571 15.2968962,39.6706714 11.4198192,34.0666714 C11.5027423,34.1262429 11.4198192,13.7918143 11.4198192,13.7918143 C11.4198192,13.7918143 15.9843962,10.5471 25.0272423,10.5471 C34.0781269,10.5471 38.6431269,13.7918143 38.6431269,13.7918143 C38.6431269,13.7918143 38.5525885,34.1262429 38.6431269,34.0666714" id="Fill-4"></path>
                    <path d="M25.0272423,3.81981429 C13.1806654,3.81981429 3.57470385,13.5488143 3.57470385,25.5513857 C3.57470385,37.5539571 13.1806654,47.2829571 25.0272423,47.2829571 C36.8784731,47.2829571 46.4844346,37.5539571 46.4844346,25.5513857 C46.4844346,13.5488143 36.8784731,3.81981429 25.0272423,3.81981429 M25.0272423,50.6939571 C11.3212423,50.6939571 0.211665385,39.4371 0.211665385,25.5513857 C0.211665385,11.6656714 11.3212423,0.408814286 25.0272423,0.408814286 C38.7336654,0.408814286 49.8517038,11.6656714 49.8517038,25.5513857 C49.8517038,39.4371 38.7336654,50.6939571 25.0272423,50.6939571" id="Fill-6"></path>
                </g>
            </g>
        </g>
    </g>
</svg>